<svg xmlns="http://www.w3.org/2000/svg" xmlns:xlink="http://www.w3.org/1999/xlink" viewBox="0 0 437.02 265.04"><defs><style>.a{fill:none;}.b{clip-path:url(#a);}.c{fill:#fff;}.d{fill:#fbfff8;}.e{fill:#f5fff0;}</style><clipPath id="a"><rect class="a" width="437.02" height="265.04"/></clipPath></defs><title>2687160</title><g class="b"><rect class="c" width="437.02" height="265.04"/><path class="d" d="M-81.5,83.33c8.71,6.25,19.43,9,30,10.67a175.29,175.29,0,0,0,130-32.17c20.36-15.15,37.1-34.53,54.76-52.77C163-21.59,196-49.58,234.08-69H-77.86Z"/><path class="e" d="M-81.5,61.09c8.71,6.25,19.43,9,30,10.67a175.29,175.29,0,0,0,130-32.17c20.36-15.15,37.1-34.53,54.76-52.77C163-43.84,196-71.82,234.08-91.19H-77.86Z"/></g></svg>