<?xml version="1.0" encoding="utf-8"?>
<!-- Generator: Adobe Illustrator 21.0.0, SVG Export Plug-In . SVG Version: 6.00 Build 0)  -->
<svg version="1.1" xmlns="http://www.w3.org/2000/svg" xmlns:xlink="http://www.w3.org/1999/xlink" x="0px" y="0px"
	 viewBox="0 0 500 500" style="enable-background:new 0 0 500 500;" xml:space="preserve">
<style type="text/css">
	.st0{fill:#FAFAFA;}
	.st1{fill:#EBEBEB;}
	.st2{fill:#27DEBF;}
	.st3{opacity:0.1;}
	.st4{fill:#FFFFFF;}
	.st5{fill:#37474F;}
	.st6{fill:#263238;}
	.st7{opacity:0.4;fill:#FFFFFF;}
	.st8{fill:#455A64;}
	.st9{fill:#FFA8A7;}
	.st10{fill:#E0E0E0;}
	.st11{fill:#F0F0F0;}
	.st12{fill:#F28F8F;}
</style>
<g id="Floor">
	<path id="SUELO_1_" class="st0" d="M89.6,408c88.6,38.2,232.2,38.2,320.8,0c88.6-38.2,88.6-100,0-138.2
		c-88.6-38.2-232.2-38.2-320.8,0C1,308,1,369.8,89.6,408z"/>
</g>
<g id="Shadows">
	<polygon id="XMLID_1085_" class="st1" points="153.8,312.4 88.9,349.9 84.1,347 149,309.6 	"/>
	<polygon id="XMLID_1340_" class="st1" points="126.7,329.1 152.7,314.1 153.3,314.4 127.4,329.4 	"/>
	<path id="XMLID_1770_" class="st1" d="M467,352.1c4.5-2.6,4.5-6.8,0-9.4L291.5,241.3c-4.5-2.6-11.8-2.6-16.4,0l-78.1,45.1l7.7,4.4
		l40.3-23.2l176.4,101.9l-36.9,21.3l8.2,4.1L467,352.1z"/>
	<path id="XMLID_1836_" class="st1" d="M203.5,330.4l125.2,72.3c1.3,0.7,3.3,0.7,4.6,0l38.7-22.3c1.3-0.7,1.3-1.9,0-2.7l-125.2-72.3
		c-1.3-0.7-3.3-0.7-4.6,0l-38.7,22.3C202.2,328.5,202.2,329.7,203.5,330.4z"/>
</g>
<g id="Plants">
	<g id="Plants_1_">
		<g id="XMLID_1302_">
			<g id="XMLID_1402_">
				<path id="XMLID_1417_" class="st2" d="M87.3,329.8c-1.3-7.6-2.2-21.7-10.9-33.7c-6.3-8.7-16.1-16.4-23.7-14.2
					c-7,2.1-5.8,13.2,2.4,19.6c8.2,6.4,18.7,15.3,23.5,31.7l7.1,11.5L87.3,329.8z"/>
			</g>
			<g id="XMLID_1075_" class="st3">
				<path id="XMLID_1099_" d="M87.3,329.8c-1.3-7.6-2.2-21.7-10.9-33.7c-6.3-8.7-16.1-16.4-23.7-14.2c-7,2.1-5.8,13.2,2.4,19.6
					c8.2,6.4,18.7,15.3,23.5,31.7l7.1,11.5L87.3,329.8z"/>
			</g>
			<g id="XMLID_1360_">
				<path id="XMLID_2646_" class="st4" d="M85.7,335.6c-0.3,0-0.5-0.2-0.5-0.5c-2.8-21.6-12.9-38.3-29.1-48.1
					c-0.3-0.2-0.3-0.5-0.2-0.7c0.2-0.3,0.5-0.3,0.7-0.2c16.5,10,26.7,26.9,29.6,48.8C86.2,335.3,86,335.5,85.7,335.6
					C85.7,335.6,85.7,335.6,85.7,335.6z"/>
			</g>
		</g>
		<g id="XMLID_1399_">
			<path id="XMLID_1401_" class="st2" d="M85,346.1c0,0-4.2,4.8-12,7.1c-7.9,2.3-11.9-1.1-11.9-1.1s2.2-8,6.5-10.7
				c0,0-7.5,2.6-13.2,7.5c0,0-4.9,0.7-7.8-6.5c0,0,2.3-4.9,11.8-8.6c0,0-6.1-0.7-14.4,2.6c-0.6,0.3-4.6-9-6-13.3
				c-1.4-4.4,0.4-4.5,3.8-5.9c3.4-1.4,15.1-3.5,17.6-1.9c2.4,1.6,4.4,8,4.4,8s1.6-4,0.7-7.2c0,0,3.3-1.6,7.4-0.8
				c4.1,0.9,4.9,3.5,5.8,6.2c0.9,2.7,1.2,5.2,1,8.7c0,0,2.1-5.1,0.7-9.7c0,0,4.1,1.5,6.8,5.1C88.6,329.4,89.3,339.6,85,346.1z"/>
			<g id="XMLID_1400_">
				<path id="XMLID_2645_" class="st4" d="M85,346.6c-0.2,0-0.3-0.1-0.4-0.2c-8.2-12.6-34.3-25.1-43.2-25.7c-0.3,0-0.5-0.3-0.5-0.6
					c0-0.3,0.2-0.5,0.6-0.5c9,0.6,35.6,13.3,44,26.1c0.2,0.2,0.1,0.6-0.2,0.7C85.2,346.6,85.1,346.6,85,346.6z"/>
			</g>
		</g>
	</g>
</g>
<g id="Bus_Stop">
	<g id="Bus_stop_1_">
		<g id="toldo">
			<g id="XMLID_687_">
				<polygon id="XMLID_1575_" class="st5" points="208.6,98.2 208.6,288.6 204.7,290.8 204.7,100.4 				"/>
				<polygon id="XMLID_1578_" class="st6" points="204.7,100.4 204.7,290.8 197.1,286.4 197.1,96 				"/>
			</g>
			<g id="XMLID_683_">
				<polygon id="XMLID_1576_" class="st5" points="392.7,395 388.8,397.2 388.8,206.7 392.7,204.5 				"/>
				<polygon id="XMLID_1577_" class="st6" points="388.8,206.7 388.8,397.2 381.2,392.8 381.2,202.3 				"/>
			</g>
			<g id="XMLID_681_">
				<path id="XMLID_682_" class="st2" d="M390.8,196.7c0,0-0.1,0-0.1-0.1L206.8,90.5l0,0c-4.4-2.7-16.6,0.6-30.9,8.9L155,111.4
					c-18.1,10.4-32.7,24.8-32.7,32.2v0l0,0v4.4l0,0v0l0,0l184.1,106.3v0l86.3-49.8v-4.4C392.7,198.5,392,197.4,390.8,196.7z"/>
				<path id="XMLID_1858_" class="st7" d="M390.7,196.7c-4.6-2.4-16.6,0.9-30.7,9l-20.9,12.1c-18.1,10.4-32.7,24.8-32.7,32.2
					L126.1,145.8l-3.8-2.2c0-7.3,14.6-21.7,32.7-32.2l20.9-12.1c14.3-8.3,26.5-11.5,30.9-8.9l0,0L390.7,196.7z"/>
				<polygon id="XMLID_680_" class="st3" points="306.4,249.9 306.4,254.3 122.3,148 122.3,143.6 				"/>
			</g>
		</g>
		<g id="Chair_1_">
			<g id="XMLID_1821_">
				<path id="XMLID_1822_" class="st6" d="M272.4,335.1c0.5,0,0.9-0.1,1.3-0.4l29.1-16.8c3.2-1.8,5.2-5.3,5.2-8.9v-33.6
					c0-1.5-1.2-2.7-2.7-2.7c-1.5,0-2.7,1.2-2.7,2.7V309c0,1.7-0.9,3.4-2.5,4.3L271,330c-1.3,0.7-1.7,2.4-1,3.7
					C270.5,334.6,271.4,335.1,272.4,335.1z"/>
			</g>
			<g id="XMLID_1819_">
				<path id="XMLID_1820_" class="st6" d="M331.7,368.6c0.5,0,0.9-0.1,1.3-0.4l29.1-16.8c3.2-1.8,5.2-5.3,5.2-8.9v-33.6
					c0-1.5-1.2-2.7-2.7-2.7c-1.5,0-2.7,1.2-2.7,2.7v33.6c0,1.7-0.9,3.4-2.5,4.3l-29.1,16.8c-1.3,0.7-1.7,2.4-1,3.7
					C329.9,368.1,330.8,368.6,331.7,368.6z"/>
			</g>
			<g id="XMLID_1817_">
				<path id="XMLID_1818_" class="st6" d="M215,301.3c0.5,0,0.9-0.1,1.3-0.4l29.1-16.8c3.2-1.8,5.2-5.3,5.2-8.9v-33.6
					c0-1.5-1.2-2.7-2.7-2.7c-1.5,0-2.7,1.2-2.7,2.7v33.6c0,1.7-0.9,3.4-2.5,4.3l-29.1,16.8c-1.3,0.7-1.7,2.4-1,3.7
					C213.2,300.8,214.1,301.3,215,301.3z"/>
			</g>
			<g id="XMLID_1815_">
				<path id="XMLID_1816_" class="st6" d="M326.7,365.2v31.1c0,0.5,0.3,0.9,0.9,1.3c1.2,0.7,3.1,0.7,4.3,0c0.6-0.3,0.9-0.8,0.9-1.3
					v-31.1H326.7z"/>
			</g>
			<g id="XMLID_1813_">
				<path id="XMLID_1814_" class="st6" d="M352.4,350.6v31.1c0,0.5,0.3,0.9,0.9,1.3c1.2,0.7,3.1,0.7,4.3,0c0.6-0.3,0.9-0.8,0.9-1.3
					v-31.1H352.4z"/>
			</g>
			<g id="XMLID_1811_">
				<path id="XMLID_1812_" class="st6" d="M210.1,297.9V329c0,0.5,0.3,0.9,0.9,1.3c1.2,0.7,3.1,0.7,4.3,0c0.6-0.3,0.9-0.8,0.9-1.3
					v-31.1H210.1z"/>
			</g>
			<g id="XMLID_1809_">
				<path id="XMLID_1810_" class="st6" d="M235.7,283.3v31.1c0,0.5,0.3,0.9,0.9,1.3c1.2,0.7,3.1,0.7,4.3,0c0.6-0.3,0.9-0.8,0.9-1.3
					v-31.1H235.7z"/>
			</g>
			<g id="XMLID_1802_">
				<g id="XMLID_1807_">
					<path id="XMLID_1808_" class="st8" d="M373.4,316.5l0.5-0.3c0.9-0.5,1.6-1.7,1.6-2.7v-4.8c0-1-0.7-2.2-1.6-2.7l-128.2-74
						c-0.9-0.5-2.3-0.5-3.1,0l-0.5,0.3c-0.9,0.5-1.6,1.7-1.6,2.7v4.8c0,1,0.7,2.2,1.6,2.7l128.2,74C371.1,317,372.5,317,373.4,316.5
						z"/>
				</g>
				<g id="XMLID_1805_">
					<path id="XMLID_1806_" class="st6" d="M368.1,311.1l6.9-4c0.3,0.5,0.5,1,0.5,1.5v4.8c0,1-0.7,2.2-1.6,2.7l-0.5,0.3
						c-0.9,0.5-2.3,0.5-3.1,0l-2.1-1.2V311.1z"/>
				</g>
				<g id="XMLID_1803_">
					<path id="XMLID_1804_" class="st5" d="M370.2,308.1l-128.2-74c-0.9-0.5-1.6-0.1-1.6,0.9v4.8c0,1,0.7,2.2,1.6,2.7l128.2,74
						c0.9,0.5,1.6,0.1,1.6-0.9l0-4.8C371.8,309.8,371.1,308.6,370.2,308.1z"/>
				</g>
			</g>
			<g id="XMLID_1795_">
				<g id="XMLID_1800_">
					<path id="XMLID_1801_" class="st8" d="M373.4,331.3l0.5-0.3c0.9-0.5,1.6-1.7,1.6-2.7v-4.8c0-1-0.7-2.2-1.6-2.7l-128.2-74
						c-0.9-0.5-2.3-0.5-3.1,0l-0.5,0.3c-0.9,0.5-1.6,1.7-1.6,2.7v4.8c0,1,0.7,2.2,1.6,2.7l128.2,74
						C371.1,331.8,372.5,331.8,373.4,331.3z"/>
				</g>
				<g id="XMLID_1798_">
					<path id="XMLID_1799_" class="st6" d="M368.1,325.9l6.9-4c0.3,0.5,0.5,1,0.5,1.5v4.8c0,1-0.7,2.2-1.6,2.7l-0.5,0.3
						c-0.9,0.5-2.3,0.5-3.1,0l-2.1-1.2V325.9z"/>
				</g>
				<g id="XMLID_1796_">
					<path id="XMLID_1797_" class="st5" d="M370.2,322.9l-128.2-74c-0.9-0.5-1.6-0.1-1.6,0.9v4.8c0,1,0.7,2.2,1.6,2.7l128.2,74
						c0.9,0.5,1.6,0.1,1.6-0.9l0-4.8C371.8,324.6,371.1,323.4,370.2,322.9z"/>
				</g>
			</g>
			<g id="XMLID_1788_">
				<g id="XMLID_1793_">
					<path id="XMLID_1794_" class="st8" d="M373.4,346.1l0.5-0.3c0.9-0.5,1.6-1.7,1.6-2.7v-4.8c0-1-0.7-2.2-1.6-2.7l-128.2-74
						c-0.9-0.5-2.3-0.5-3.1,0l-0.5,0.3c-0.9,0.5-1.6,1.7-1.6,2.7v4.8c0,1,0.7,2.2,1.6,2.7l128.2,74
						C371.1,346.6,372.5,346.6,373.4,346.1z"/>
				</g>
				<g id="XMLID_1791_">
					<path id="XMLID_1792_" class="st6" d="M368.1,340.7l6.9-4c0.3,0.5,0.5,1,0.5,1.5v4.8c0,1-0.7,2.2-1.6,2.7l-0.5,0.3
						c-0.9,0.5-2.3,0.5-3.1,0l-2.1-1.2V340.7z"/>
				</g>
				<g id="XMLID_1789_">
					<path id="XMLID_1790_" class="st5" d="M370.2,337.7l-128.2-74c-0.9-0.5-1.6-0.1-1.6,0.9v4.8c0,1,0.7,2.2,1.6,2.7l128.2,74
						c0.9,0.5,1.6,0.1,1.6-0.9l0-4.8C371.8,339.4,371.1,338.2,370.2,337.7z"/>
				</g>
			</g>
			<g id="XMLID_1758_">
				<g id="XMLID_1781_">
					<g id="XMLID_1786_">
						<path id="XMLID_1787_" class="st5" d="M368.1,355.1v0.6c0,1-0.7,2.2-1.6,2.7l-4.2,2.4c-0.9,0.5-2.3,0.5-3.1,0l-128.2-74
							c-0.9-0.5-1.6-1.7-1.6-2.7v-0.6c0-1,0.7-2.2,1.6-2.7l4.2-2.4c0.9-0.5,2.3-0.5,3.1,0l128.2,74
							C367.4,352.9,368.1,354.1,368.1,355.1z"/>
					</g>
					<g id="XMLID_1784_">
						<path id="XMLID_1785_" class="st6" d="M360.8,353.3l0,7.9c0.6,0,1.1-0.1,1.6-0.4l4.2-2.4c0.9-0.5,1.6-1.7,1.6-2.7l0-0.6
							c0-1-0.7-2.2-1.6-2.7l-2.1-1.2L360.8,353.3z"/>
					</g>
					<g id="XMLID_1782_">
						<path id="XMLID_1783_" class="st8" d="M359.3,356.6l-128.2-74c-0.9-0.5-0.9-1.3,0-1.8l4.2-2.4c0.9-0.5,2.3-0.5,3.1,0l128.2,74
							c0.9,0.5,0.9,1.3,0,1.8l-4.2,2.4C361.5,357.1,360.1,357.1,359.3,356.6z"/>
					</g>
				</g>
				<g id="XMLID_1774_">
					<g id="XMLID_1779_">
						<path id="XMLID_1780_" class="st5" d="M355.3,362.5v0.6c0,1-0.7,2.2-1.6,2.7l-4.2,2.4c-0.9,0.5-2.3,0.5-3.1,0l-128.2-74
							c-0.9-0.5-1.6-1.7-1.6-2.7v-0.6c0-1,0.7-2.2,1.6-2.7l4.2-2.4c0.9-0.5,2.3-0.5,3.1,0l128.2,74
							C354.6,360.3,355.3,361.5,355.3,362.5z"/>
					</g>
					<g id="XMLID_1777_">
						<path id="XMLID_1778_" class="st6" d="M348,360.7l0,7.9c0.6,0,1.1-0.1,1.6-0.4l4.2-2.4c0.9-0.5,1.6-1.7,1.6-2.7l0-0.6
							c0-1-0.7-2.2-1.6-2.7l-2.1-1.2L348,360.7z"/>
					</g>
					<g id="XMLID_1775_">
						<path id="XMLID_1776_" class="st8" d="M346.5,364l-128.2-74c-0.9-0.5-0.9-1.3,0-1.8l4.2-2.4c0.9-0.5,2.3-0.5,3.1,0l128.2,74
							c0.9,0.5,0.9,1.3,0,1.8l-4.2,2.4C348.7,364.5,347.3,364.5,346.5,364z"/>
					</g>
				</g>
				<g id="XMLID_1759_">
					<g id="XMLID_1772_">
						<path id="XMLID_1773_" class="st5" d="M342.6,369.9v0.6c0,1-0.7,2.2-1.6,2.7l-4.2,2.4c-0.9,0.5-2.3,0.5-3.1,0l-128.2-74
							c-0.9-0.5-1.6-1.7-1.6-2.7v-0.6c0-1,0.7-2.2,1.6-2.7l4.2-2.4c0.9-0.5,2.3-0.5,3.1,0l128.2,74
							C341.9,367.7,342.6,368.9,342.6,369.9z"/>
					</g>
					<g id="XMLID_1769_">
						<path id="XMLID_1771_" class="st6" d="M335.2,368.1l0,7.9c0.6,0,1.1-0.1,1.6-0.4l4.2-2.4c0.9-0.5,1.6-1.7,1.6-2.7l0-0.6
							c0-1-0.7-2.2-1.6-2.7l-2.1-1.2L335.2,368.1z"/>
					</g>
					<g id="XMLID_1760_">
						<path id="XMLID_1761_" class="st8" d="M333.7,371.4l-128.2-74c-0.9-0.5-0.9-1.3,0-1.8l4.2-2.4c0.9-0.5,2.3-0.5,3.1,0l128.2,74
							c0.9,0.5,0.9,1.3,0,1.8l-4.2,2.4C335.9,371.9,334.5,371.9,333.7,371.4z"/>
					</g>
				</g>
			</g>
			<g id="XMLID_1749_">
				<g id="XMLID_1756_">
					<path id="XMLID_1757_" class="st6" d="M364.6,307.7c0.6,0.3,1,1.1,1,1.7c0,0.6-0.4,0.9-1,0.6c-0.6-0.3-1-1.1-1-1.7
						C363.6,307.7,364.1,307.4,364.6,307.7z"/>
				</g>
				<g id="XMLID_1752_">
					<path id="XMLID_1755_" class="st6" d="M364.6,322.5c0.6,0.3,1,1.1,1,1.7c0,0.6-0.4,0.9-1,0.6c-0.6-0.3-1-1.1-1-1.7
						C363.6,322.5,364.1,322.2,364.6,322.5z"/>
				</g>
				<g id="XMLID_1750_">
					<path id="XMLID_1751_" class="st6" d="M364.6,337.3c0.6,0.3,1,1.1,1,1.7c0,0.6-0.4,0.9-1,0.6c-0.6-0.3-1-1.1-1-1.7
						C363.6,337.2,364.1,337,364.6,337.3z"/>
				</g>
			</g>
			<g id="XMLID_1739_">
				<g id="XMLID_1747_">
					<path id="XMLID_1748_" class="st6" d="M247.9,240.5c0.6,0.3,1,1.1,1,1.7s-0.4,0.9-1,0.6c-0.6-0.3-1-1.1-1-1.7
						C246.9,240.4,247.4,240.2,247.9,240.5z"/>
				</g>
				<g id="XMLID_1742_">
					<path id="XMLID_1743_" class="st6" d="M247.9,255.2c0.6,0.3,1,1.1,1,1.7c0,0.6-0.4,0.9-1,0.6c-0.6-0.3-1-1.1-1-1.7
						S247.4,254.9,247.9,255.2z"/>
				</g>
				<g id="XMLID_1740_">
					<path id="XMLID_1741_" class="st6" d="M247.9,270c0.6,0.3,1,1.1,1,1.7s-0.4,0.9-1,0.6c-0.6-0.3-1-1.1-1-1.7
						C246.9,270,247.4,269.7,247.9,270z"/>
				</g>
			</g>
			<g id="XMLID_1335_">
				<g id="XMLID_1737_">
					<path id="XMLID_1738_" class="st6" d="M356.3,349.5c0.5,0.3,0.5,0.7,0,1c-0.5,0.3-1.3,0.3-1.8,0c-0.5-0.3-0.5-0.7,0-1
						C355,349.2,355.8,349.2,356.3,349.5z"/>
				</g>
				<g id="XMLID_1338_">
					<path id="XMLID_1733_" class="st6" d="M343.5,356.9c0.5,0.3,0.5,0.7,0,1c-0.5,0.3-1.3,0.3-1.8,0c-0.5-0.3-0.5-0.7,0-1
						C342.2,356.6,343,356.6,343.5,356.9z"/>
				</g>
				<g id="XMLID_1336_">
					<path id="XMLID_1337_" class="st6" d="M330.7,364.4c0.5,0.3,0.5,0.7,0,1c-0.5,0.3-1.3,0.3-1.8,0c-0.5-0.3-0.5-0.7,0-1
						C329.4,364.1,330.2,364.1,330.7,364.4z"/>
				</g>
			</g>
			<g id="XMLID_1328_">
				<g id="XMLID_1333_">
					<path id="XMLID_1334_" class="st6" d="M239.7,282.2c0.5,0.3,0.5,0.7,0,1c-0.5,0.3-1.3,0.3-1.8,0c-0.5-0.3-0.5-0.7,0-1
						C238.4,281.9,239.2,281.9,239.7,282.2z"/>
				</g>
				<g id="XMLID_1331_">
					<path id="XMLID_1332_" class="st6" d="M226.9,289.6c0.5,0.3,0.5,0.7,0,1c-0.5,0.3-1.3,0.3-1.8,0c-0.5-0.3-0.5-0.7,0-1
						C225.6,289.3,226.4,289.3,226.9,289.6z"/>
				</g>
				<g id="XMLID_1329_">
					<path id="XMLID_1330_" class="st6" d="M214,297.1c0.5,0.3,0.5,0.7,0,1c-0.5,0.3-1.3,0.3-1.8,0s-0.5-0.7,0-1
						C212.8,296.8,213.5,296.8,214,297.1z"/>
				</g>
			</g>
			<g id="XMLID_675_">
				<g id="XMLID_1326_">
					<path id="XMLID_1327_" class="st6" d="M305.3,274.3c0.6,0.3,1,1.1,1,1.7s-0.4,0.9-1,0.6c-0.6-0.3-1-1.1-1-1.7
						C304.3,274.2,304.7,273.9,305.3,274.3z"/>
				</g>
				<g id="XMLID_678_">
					<path id="XMLID_679_" class="st6" d="M305.3,289c0.6,0.3,1,1.1,1,1.7c0,0.6-0.4,0.9-1,0.6c-0.6-0.3-1-1.1-1-1.7
						S304.7,288.7,305.3,289z"/>
				</g>
				<g id="XMLID_676_">
					<path id="XMLID_677_" class="st6" d="M305.3,303.8c0.6,0.3,1,1.1,1,1.7s-0.4,0.9-1,0.6c-0.6-0.3-1-1.1-1-1.7
						C304.3,303.7,304.7,303.5,305.3,303.8z"/>
				</g>
			</g>
			<g id="XMLID_668_">
				<g id="XMLID_673_">
					<path id="XMLID_674_" class="st6" d="M297,316c0.5,0.3,0.5,0.7,0,1c-0.5,0.3-1.3,0.3-1.8,0c-0.5-0.3-0.5-0.7,0-1
						C295.8,315.7,296.6,315.7,297,316z"/>
				</g>
				<g id="XMLID_671_">
					<path id="XMLID_672_" class="st6" d="M284.2,323.4c0.5,0.3,0.5,0.7,0,1c-0.5,0.3-1.3,0.3-1.8,0c-0.5-0.3-0.5-0.7,0-1
						C282.9,323.1,283.7,323.1,284.2,323.4z"/>
				</g>
				<g id="XMLID_53_">
					<path id="XMLID_670_" class="st6" d="M271.4,330.8c0.5,0.3,0.5,0.7,0,1c-0.5,0.3-1.3,0.3-1.8,0c-0.5-0.3-0.5-0.7,0-1
						C270.1,330.6,270.9,330.6,271.4,330.8z"/>
				</g>
			</g>
		</g>
	</g>
</g>
<g id="Sign">
	<g id="Bus_signal">
		<g id="XMLID_1392_">
			<polygon id="XMLID_1347_" class="st6" points="88.7,158.7 88.7,349 84.9,346.8 84.9,156.4 			"/>
			<polygon id="XMLID_1346_" class="st5" points="94.9,155.1 94.9,345.4 88.7,349 88.7,158.7 			"/>
			<polygon id="XMLID_1345_" class="st8" points="94.9,155.1 88.7,158.7 84.9,156.4 91.1,152.8 			"/>
		</g>
		<g id="XMLID_1391_">
			<path id="XMLID_1339_" class="st2" d="M73.7,177.9L108,158c1.3-0.7,2.3-0.1,2.3,1.3V209c0,1.5-1,3.3-2.3,4l-34.3,19.8
				c-1.3,0.7-2.3,0.1-2.3-1.3l0-49.6C71.4,180.4,72.4,178.6,73.7,177.9z"/>
			<g id="XMLID_1341_">
				<path id="XMLID_1342_" class="st4" d="M105.1,181.4l-1.6,0.9c-0.1,0.1-0.2,0.2-0.2,0.4v3.6l0,0v1.6l-0.7,0.4v-11.6
					c0-2-1.4-2.9-3.2-1.9l-17.3,10c-1.8,1-3.2,3.5-3.2,5.6V202l-0.7,0.4v-1.6l0,0v-3.6c0-0.1-0.1-0.2-0.2-0.1l-1.6,0.9
					c-0.1,0.1-0.2,0.2-0.2,0.4v3.3c0,0.5,0.4,0.7,0.8,0.5l0.4-0.2v1c0,0.5,0.3,0.7,0.8,0.4l0.7-0.4v8.2l-0.1,0.1
					c-0.5,0.3-0.9,1-0.9,1.5v0.3c0,1.3,0.9,1.9,2.1,1.2l0.4-0.2v2.1c0,0.4,0.3,0.5,0.6,0.3l2.7-1.6c0.3-0.2,0.6-0.6,0.6-1v-2.1
					l12.9-7.5v2.1c0,0.4,0.3,0.5,0.6,0.3l2.7-1.6c0.3-0.2,0.6-0.6,0.6-1V202l0.4-0.2c1.2-0.7,2.1-2.3,2.1-3.6v-0.3
					c0-0.6-0.4-0.8-0.9-0.5l-0.1,0.1v-8.2l0.7-0.4c0.4-0.2,0.8-0.8,0.8-1.3v-1l0.4-0.2c0.4-0.3,0.8-0.9,0.8-1.4v-3.3
					C105.3,181.4,105.2,181.4,105.1,181.4z M101.8,192.1c0,0.9-0.6,1.9-1.3,2.3c-0.7,0.4-1.3,0.1-1.3-0.8c0-0.9,0.6-1.9,1.3-2.3
					C101.2,190.9,101.8,191.3,101.8,192.1z M99.9,176.5c0.5-0.3,0.8-0.1,0.8,0.5s-0.4,1.2-0.8,1.4c-0.5,0.3-0.8,0.1-0.8-0.5
					S99.4,176.7,99.9,176.5z M100.7,182.3v5.7c0,0.2-0.2,0.6-0.4,0.7l-9.1,5.3v-9.1l7-4C99.6,180.1,100.7,180.7,100.7,182.3z
					 M98,197.5l-14.4,8.3v-0.7l14.4-8.3V197.5z M98,193.6v0.8l-14.4,8.3v-0.8L98,193.6z M98,196l-14.4,8.3v-0.7l14.4-8.3V196z
					 M84.4,185.6c0-0.1,0.1-0.3,0.2-0.3l12.5-7.2c0.1-0.1,0.2,0,0.2,0.1v1.6c0,0.1-0.1,0.3-0.2,0.3l-12.5,7.2
					c-0.1,0.1-0.2,0-0.2-0.1V185.6z M81.7,187c0.5-0.3,0.8-0.1,0.8,0.5c0,0.5-0.4,1.2-0.8,1.4c-0.5,0.3-0.8,0.1-0.8-0.5
					S81.3,187.2,81.7,187z M80.9,193.8c0-1.6,1.1-3.6,2.5-4.4l7-4v9.1l-9.1,5.3c-0.2,0.1-0.4,0-0.4-0.2V193.8z M81.2,202.4
					c0.7-0.4,1.3-0.1,1.3,0.8c0,0.9-0.6,1.9-1.3,2.3c-0.7,0.4-1.3,0.1-1.3-0.8C79.9,203.9,80.5,202.9,81.2,202.4z M84.8,206.8
					c-0.5,0.3-0.9,0.2-1.1-0.2l14.2-8.2c-0.2,0.6-0.6,1.1-1.1,1.4L84.8,206.8z"/>
			</g>
		</g>
	</g>
</g>
<g id="Character">
	<g id="Character_3_">
		<g id="Backpack">
			<path id="XMLID_1661_" class="st2" d="M293.8,331.4c1.5-0.4,9.6-5,10.4-5.5c0.8-0.6,2.4-1.7,2.4-3.7c0-1.8-0.2-18.3-1.6-26.4
				c-0.7-3.9-3.3-9.1-8.3-12.2c-5-3.1-10-5.4-14.3-3.6c-4.2,1.8-8.1,5-9.8,8.9c-1.7,3.9-2.8,11.8-2.9,14.8c-0.1,3,0,13.4,0,14.4
				s0.2,2.1,5.1,5.2c5,3.1,11.8,6.8,14,7.7C290.4,331.8,292.4,331.8,293.8,331.4z"/>
			<path id="XMLID_1646_" class="st2" d="M295,285.8c0.5,0.3,1.8-0.4,2-0.7c0.2-0.3,0.3-3.2-0.7-4.7c-1-1.6-7.2-4.5-8.7-4.3
				c-1.5,0.2-2.7,1.4-2.8,1.8c-0.2,0.4-0.4,3.1,0,3.6c0.4,0.5,1.8-0.3,1.9-0.5c0.1-0.2-0.5-2.2,0.5-2.6c0.9-0.4,5.2,1.5,7,2.9
				c0.8,0.6,0.7,2.2,0.7,3C294.8,285.2,294.8,285.7,295,285.8z"/>
			<path id="XMLID_1351_" class="st3" d="M295,285.8c0.5,0.3,1.8-0.4,2-0.7c0.2-0.3,0.3-3.2-0.7-4.7c-1-1.6-7.2-4.5-8.7-4.3
				c-1.5,0.2-2.7,1.4-2.8,1.8c-0.2,0.4-0.4,3.1,0,3.6c0.4,0.5,1.8-0.3,1.9-0.5c0.1-0.2-0.5-2.2,0.5-2.6c0.9-0.4,5.2,1.5,7,2.9
				c0.8,0.6,0.7,2.2,0.7,3C294.8,285.2,294.8,285.7,295,285.8z"/>
			<path id="XMLID_1645_" class="st3" d="M296.3,304.5c-0.9-8.6-2.5-13.6-10.9-17.4c-8.4-3.8-11.7-0.6-12.9,2.3
				c-1.6,4-2.6,11.4-2.8,14.4c-0.1,3,0,13.4,0,14.4s0.2,2.1,5.1,5.2c5,3.1,11.8,6.8,14,7.7c1.6,0.7,3.6,0.7,5,0.4
				c0.2-0.1,0.5-0.2,1-0.4C297.4,327.7,297.1,312.3,296.3,304.5z"/>
			<path id="XMLID_1644_" class="st3" d="M276.6,283.7c2.2-1.3,5.8-2.1,11.1,0.2c9.5,4.2,11.9,9.5,12.8,18.8
				c0.2,1.7,0.4,3.7,0.5,5.9l0.8-0.5c-0.1-2.3-0.3-4.4-0.5-6.2c-1-9.3-3.8-14.5-12.9-18.6c-5-2.2-8.3-1.9-10.5-0.8
				C277.6,282.9,277.2,283.2,276.6,283.7z"/>
			<path id="XMLID_1643_" class="st4" d="M276.3,283.9c2.2-1.3,5.8-2.1,11.1,0.2c9.5,4.2,11.9,9.5,12.8,18.8
				c0.2,1.7,0.4,3.7,0.5,5.9l0.8-0.5c-0.1-2.3-0.3-4.4-0.5-6.2c-1-9.3-3.8-14.5-12.9-18.6c-5-2.2-8.4-1.9-10.6-0.8
				C277.2,283.2,276.8,283.4,276.3,283.9z"/>
			<g id="XMLID_1612_">
				<path id="XMLID_1642_" class="st5" d="M279.4,292.1l2.9-1.6c0.3-0.2,0.7-0.1,0.8,0.2l2.9,5.1c0.2,0.3,0.1,0.7-0.2,0.8l-2.8,1.6
					c-0.3,0.2-0.7,0.1-0.8-0.2l-3-5.1C279,292.7,279.1,292.3,279.4,292.1z"/>
				<path id="XMLID_1641_" class="st8" d="M282.4,297.7l-2.8-4.9c-0.1-0.1,0-0.3,0.1-0.4l2.6-1.5c0.1-0.1,0.3,0,0.4,0.1l2.8,4.8
					c0.1,0.1,0,0.3-0.1,0.4l-2.6,1.5C282.7,297.9,282.5,297.9,282.4,297.7z"/>
				<g id="XMLID_1613_">
					<path id="XMLID_1640_" class="st5" d="M281.8,295.4L281.8,295.4c-0.2-0.1-0.3-0.3-0.3-0.4v-2.3c0-0.2,0.1-0.2,0.3-0.1l0,0
						c0.2,0.1,0.3,0.3,0.3,0.4v2.3C282.1,295.5,282,295.5,281.8,295.4z"/>
					<path id="XMLID_1614_" class="st5" d="M283.4,296.3L283.4,296.3c-0.2-0.1-0.3-0.3-0.3-0.4v-2.3c0-0.2,0.1-0.2,0.3-0.1l0,0
						c0.2,0.1,0.3,0.3,0.3,0.4v2.3C283.6,296.3,283.5,296.4,283.4,296.3z"/>
				</g>
			</g>
			<g id="XMLID_1580_">
				<g id="XMLID_1596_">
					<path id="XMLID_1597_" class="st6" d="M300.6,307c0,0-0.5,1.9-0.5,2.7c0,0.2,0.3,0.3,0.3,0.3c0.4,0,1.5-0.7,1.6-0.8
						c0.1-0.2-0.4-2.3-0.4-2.3L300.6,307z"/>
				</g>
				<g id="XMLID_1581_">
					<circle id="XMLID_1582_" class="st6" cx="301.1" cy="306.2" r="1"/>
				</g>
			</g>
			<path id="XMLID_1396_" class="st3" d="M287.6,278.4c-1.1-0.1-2.1,0-2.4,1.1c-0.3,1.1-0.2,2.1,0,2.2c0.6,0,1.4-0.5,1.5-0.7
				c0.1-0.2-0.5-2.2,0.5-2.6C287.3,278.4,287.4,278.3,287.6,278.4L287.6,278.4z"/>
			<g id="XMLID_692_">
				<path id="XMLID_1680_" class="st2" d="M298.7,314l5.8-3.4c0.3-0.2,0.7-0.2,1,0.1c0.6,0.5,1.7,1.7,2.2,4.1
					c0.9,3.7,0.6,8.6-0.3,9.1l-6.3,3.7c-0.9,0.6-2.3-0.6-2.6-1C297.9,325.7,298.1,317,298.7,314z"/>
				<path id="XMLID_1600_" class="st3" d="M298.7,314c0,0,1.2,1,2,4.7c0.9,3.7,1.4,8.3,0.4,8.9s-2.3-0.6-2.6-1
					C297.9,325.7,298.1,317,298.7,314z"/>
				<path id="XMLID_1598_" class="st3" d="M305.3,311.2c0.7,0.3,1.9,1.3,2.4,3.8c0.2,0.8-0.1,1.6-0.6,1.9c-0.5,0.3-2.7,1.4-4,2.2
					c-1.2,0.7-1.8-0.2-2.1-0.8l0,0c-0.4-1-0.8-1.8-1.1-2.5c-0.6-1.4-1.1-1.8-1.1-1.8l5.6-2.7C304.6,311.1,305,311.1,305.3,311.2z"/>
				<path id="XMLID_1395_" class="st2" d="M304.6,310.6c0.3-0.2,0.6-0.2,0.9,0c0.7,0.3,1.9,1.3,2.4,3.8c0.2,0.8-0.1,1.6-0.6,1.9
					c-0.5,0.3-2.7,1.4-4,2.2c-1.2,0.7-1.8-0.2-2.1-0.8l0,0c-1.4-3-2.6-3.6-2.6-3.6L304.6,310.6z"/>
				<path id="XMLID_1344_" class="st7" d="M304.6,310.6c0.3-0.2,0.6-0.2,0.9,0c0.7,0.3,1.9,1.3,2.4,3.8c0.2,0.8-0.1,1.6-0.6,1.9
					c-0.5,0.3-2.7,1.4-4,2.2c-1.2,0.7-1.8-0.2-2.1-0.8l0,0c-1.4-3-2.6-3.6-2.6-3.6L304.6,310.6z"/>
			</g>
			<polygon id="XMLID_1343_" class="st4" points="273.4,305.9 290.7,315.9 290.7,316.9 273.4,306.9 			"/>
			<polygon id="XMLID_1348_" class="st3" points="273.4,307.5 290.7,317.5 290.7,316.9 273.4,306.9 			"/>
			<g id="XMLID_1349_">
				<g id="XMLID_1394_">
					<path id="XMLID_1397_" class="st6" d="M291.3,317.3c0,0,0.5,1.9,0.5,2.7c0,0.2-0.3,0.3-0.3,0.3c-0.4,0-1.5-0.7-1.6-0.8
						c-0.1-0.2,0.4-2.3,0.4-2.3L291.3,317.3z"/>
				</g>
				<g id="XMLID_1350_">
					<circle id="XMLID_1393_" class="st6" cx="290.8" cy="316.6" r="1"/>
				</g>
			</g>
		</g>
		<g id="Personaje">
			<g id="XMLID_1619_">
				<g id="XMLID_1583_">
					<polygon id="XMLID_1611_" class="st9" points="309.3,406.9 302.3,406.2 303.7,395.5 311.3,396.2 					"/>
					<path id="XMLID_1609_" class="st6" d="M302.9,401.8l0.1-0.9c-0.7,0.3-4.6,7.3-6.9,10.2c-2.4,3-6.4,5.6-7.2,7.8
						c-0.9,2.3,5,3.8,7.1,3.5c2.4-0.3,6.6-1.8,7.8-3.3c1.1-1.5,1.7-3.8,2.6-4.9c0.9-1.1,4.4-3.4,4.9-5.3c0.2-0.7,0-3.7-0.3-5.1
						c-0.3-1.3-0.2-2.6-0.6-2.5l-0.2,1c-0.5,0.5-2.2,0.8-3.8,0.8C305.4,403,302.8,402.6,302.9,401.8z"/>
				</g>
				<g id="XMLID_690_">
					<polygon id="XMLID_1610_" class="st9" points="285.6,393 278.2,392.3 282,380.8 289.9,380.6 					"/>
					<path id="XMLID_1608_" class="st6" d="M279,389.8c-0.3,0-0.9,0.4-1.8,1.2c-1,0.9-6.4,4.1-7.8,4.8c-2.5,1.3-7.4,3.2-9.6,4.2
						c-1.4,0.6-1.3,2.3,0.1,3.2c1.4,0.9,4.9,3,9.1,2c2.2-0.5,9.4-4.4,11.2-4.2c1.9,0.1,5.3,0.1,6.7-0.9c1.4-0.9,0.7-4.3,0.3-6
						c-0.4-1.9-0.1-3.9-0.7-3.8l-0.4,1.3c-0.8,1.2-7.5,0.3-7.4-0.8L279,389.8z"/>
				</g>
				<g id="XMLID_684_">
					<path id="XMLID_686_" class="st5" d="M347,330.3c1.5,10.3-0.5,12.3-10.3,22.2c-5.3,5.3-16.5,12.7-16.5,12.7s1,5.9-1.1,13
						c-2.4,7.8-8.3,21.6-8.3,21.6s-3.9,1.7-7.8-0.3c0,0,1.8-11.5,2.6-19.7c1.3-13,2.4-17.4,3-19.8c0.5-2.1,11.8-13.9,14.1-17.4
						L299.8,354c0,0-0.1,7.1-1.5,10.8c-3.6,9.8-11.1,24.7-11.1,24.7s-5.7,0.6-8.2-1.3c0,0,7.3-35.9,8.2-38.9
						c1.6-5.3,20.9-19.2,24.9-22.6c2.3-1.9,4.8-4,4.8-4L347,330.3z"/>
					<path id="XMLID_1435_" class="st6" d="M347,330.3l-6-1.5l0.2,1.9c0,0,0.5,10.9-8.1,19.3c-8.6,8.5-15.9,13.4-16.3,15.2
						c-0.4,1.8-0.9,17.6-8.7,35.2c1.6-0.2,2.7-0.6,2.7-0.6s5.9-13.8,8.3-21.6c2.2-7.1,1.1-13,1.1-13s11.2-7.4,16.5-12.7
						C346.5,342.6,348.4,340.6,347,330.3z"/>
					<path id="XMLID_1606_" class="st6" d="M322.6,342.6c0,0-3.4-2.5-4.9-6.9c0,0,0.2,3,0.8,5.3c0.6,2.3-18.7,13.1-18.7,13.1
						L322.6,342.6z"/>
				</g>
			</g>
			<g id="XMLID_1618_">
				<g id="XMLID_1607_">
					<path id="XMLID_1414_" class="st9" d="M318.2,303.4c0,0-13.6-13.4-16.1-15.7c-2.6-2.3-7.8-3.8-11.4-3.2
						c-3.5,0.6-3.3,3.3-0.3,4.6c5,2.1,6.5,4.1,6.4,4.3c-0.1,0.2-3.6-1.4-5.1-0.6c-1.5,0.8-0.7,1.9,0,2.1c0.7,0.2,3.8,1.6,5.4,2.1
						c1.6,0.5,4,0.5,6.2,2.1c2.3,1.6,10.9,14.9,14.6,17.1c3.7,2.1,4.2-12.5,4.2-12.5L318.2,303.4z"/>
					<path id="XMLID_1398_" class="st10" d="M327.1,282.5c-3.4-0.4-5.9,0.3-7.9,3.3c-2,3-3.1,15.4-3.1,15.4s0.7,3,3,4
						S327.1,282.5,327.1,282.5z"/>
				</g>
				<path id="XMLID_1604_" class="st11" d="M345.1,288.3c0,0,2.3,1.9,2.3,8v13.1l-0.3,22c-4.7,5.1-25.8,3.2-31-8
					c0,0,0.8-23.5,1.5-28.7c1-7,2.7-12.1,9.5-12.2l10.3,2.4L345.1,288.3z"/>
				<g id="XMLID_220_">
					<path id="XMLID_689_" class="st9" d="M351.3,352c-0.8,1-1.8,1.9-2.9,2.4c-1.5,0.7-3.1,0.9-4.8,0.8c-0.7,0-1.4-0.1-2.1-0.4
						c-0.5-0.2-1.2-0.7-1.3-1.3c-0.1-0.6,0.5-1.1,0.9-1.5c0.7-0.6,1.3-1.3,1.9-2c0.3-0.3,0.6-0.7,0.9-1.1c0.3-0.5,0.6-0.9,0.9-1.4
						c0.2-0.3,0.6-1,0.2-1.2c-0.2-0.1-0.4-0.1-0.5,0c-0.5,0.1-1.1,0.3-1.6,0.4c-0.5,0.1-1.1,0.1-1.6-0.1c-0.2-0.1-0.5-0.3-0.6-0.5
						c-0.1-0.2,0-0.5,0.1-0.7c0.1-0.2,0.4-0.4,0.6-0.5c0.6-0.5,1.2-0.9,1.9-1.4c1.2-0.9,2.7-1.5,3.6-2.8c0.7-1,0.8-2.1,1-3.2
						c0.7-3.7,1.5-18.3,1.5-18.3l-4.8-16.9c0,0-4.4-9.1,0.5-14.1c2.3,1,4.9,0.8,7.8,10.8c2.1,7.2,5.7,16.8,5.7,20
						c0,1.1-0.1,2.4-0.4,4c-1.3,7-2.7,13.1-3.9,20.1c-0.1,0.6-0.1,1.2-0.2,1.8C353.4,349.3,352.1,351,351.3,352z"/>
					<path id="XMLID_691_" class="st10" d="M345.1,288.3c0,0,2.8,0.4,4.5,2.3c1,1.1,3.1,4.8,4.3,9.1c1.2,4.3,3,9.9,3,9.9
						s-3.7,4.2-10,3.6l-3.6-11.7C343.3,301.6,339.9,291.3,345.1,288.3z"/>
				</g>
			</g>
			<g id="XMLID_1584_">
				<circle id="XMLID_1605_" class="st6" cx="326.2" cy="264" r="9.5"/>
				<g id="XMLID_1592_">
					<path id="XMLID_1603_" class="st6" d="M341.7,269.6c0,0-1.5,6.8-2,8c-0.6,1.1-1.8,1.4-1.8,1.4l0.1-4.8L341.7,269.6z"/>
					<path id="XMLID_1602_" class="st6" d="M339.9,259.8c0,0,1.6-0.3,2.8,1c1.2,1.2,0.5,5.1-1,8.8L339,270L339.9,259.8z"/>
					<path id="XMLID_1601_" class="st9" d="M338.1,270c0.6,0.3,1.3-0.7,2-1.4c0.7-0.7,2.9-1.7,4,0.6c1.1,2.4-1,5.5-2.7,6.1
						c-3,0.9-3.5-1-3.5-1l-0.2,10.8c-2.6,2.9-11.4,2.2-9.8-0.3l0-3.3c0,0-2.7,0.4-4.1,0.2c-2.2-0.3-3.6-2.1-4.3-4.5
						c-1.1-3.8-1.5-6.9-0.6-14.5c1-8.3,10.6-8.4,15.8-5.1C340.1,260.9,338.1,270,338.1,270z"/>
					<path id="XMLID_1595_" class="st6" d="M338.1,270.9c0.3,0,1.3-1.7,2-2.4c0.9-0.9-0.3-8.7-0.3-8.7s0.9-1.9-0.9-4
						c-1.3-1.4-3.5-1.6-7.2-2.2c-1.9-0.3-4.9-0.9-6.8-1.2c-2.3-0.4-4.2-0.9-5.9,0.5c-1.3,1.1-1.8,3.1-1.1,4.6c0.2,0.4,0.4,0.7,0.7,1
						c0.5,0.5,1,0.9,1.7,1.2c0,0,1,0.9,4.5,1.3c3.5,0.4,9-0.1,9.8-0.2c1-0.1,1.2,0.8,1.8,3.6C336.8,266.8,337.2,270.9,338.1,270.9z"
						/>
					<path id="XMLID_1594_" class="st6" d="M339.9,260.4l3.3-1.8c-0.5-1-1.6-1.3-2.5-0.8C339.8,258.3,339.4,259.5,339.9,260.4z"/>
					<path id="XMLID_1593_" class="st12" d="M328,281.5c0,0,4.9-1,6.7-1.9c1.2-0.6,2.1-1.7,2.4-2.4c0,0-0.3,1.5-1.4,2.8
						c-1.3,1.6-7.7,2.8-7.7,2.8L328,281.5z"/>
				</g>
				<g id="XMLID_1585_">
					
						<ellipse id="XMLID_1591_" transform="matrix(1 -2.781279e-03 2.781279e-03 1 -0.7461 0.9192)" class="st6" cx="330.1" cy="268.7" rx="1" ry="1"/>
					<path id="XMLID_1590_" class="st6" d="M330.7,264.6l2.1,1.2c0.3-0.6,0.1-1.4-0.5-1.7C331.8,263.8,331.1,264,330.7,264.6z"/>
					<path id="XMLID_1589_" class="st12" d="M328.4,275.6l-2.3,0.8c0.2,0.6,0.9,1,1.5,0.7C328.3,276.9,328.6,276.2,328.4,275.6z"/>
					<path id="XMLID_1588_" class="st6" d="M320.1,265.5l1.9-1.5c-0.4-0.6-1.1-0.7-1.7-0.3C319.8,264.2,319.7,264.9,320.1,265.5z"/>
					
						<ellipse id="XMLID_1587_" transform="matrix(1 -2.831847e-03 2.831847e-03 1 -0.7589 0.9127)" class="st6" cx="321.9" cy="268.4" rx="1" ry="1"/>
					<polygon id="XMLID_1586_" class="st12" points="325.8,267.6 325.7,273.6 322.2,272.9 					"/>
				</g>
			</g>
		</g>
	</g>
</g>
<g id="Cloud">
	<path id="Nube" class="st1" d="M392,136.5l7.3,4.2c0-0.3-0.1-0.7-0.1-1v-2.1c0-3.8,2.6-5.3,5.9-3.4c1.3,0.8,2.5,2,3.5,3.4
		c0.5-4.7,4.3-6.5,8.8-3.9c4.9,2.8,8.8,9.7,8.8,15.3v3.2c0,1.5-0.3,2.7-0.7,3.7l6.1,3.5c1.8,1,3.3,3.6,3.3,5.7
		c0,2.1-1.5,2.9-3.3,1.9L392,144.1c-1.8-1-3.3-3.6-3.3-5.7C388.7,136.3,390.2,135.5,392,136.5z"/>
</g>
</svg>
